<svg width="17" height="17" viewBox="0 0 17 17" fill="none" xmlns="http://www.w3.org/2000/svg">
<path d="M6.98146 9.29736L2.87136 13.4143V11.1917C2.87136 10.5981 2.41179 10.1194 1.85033 10.118C1.28681 10.118 0.83135 10.5981 0.83135 11.1917L0.829982 15.7525C0.829982 15.7723 0.835453 15.7928 0.830666 15.812C0.829299 15.8263 0.826563 15.838 0.825195 15.8537C0.826563 16.4179 1.31212 16.8727 1.91393 16.8727H6.53831C7.13944 16.8727 7.62567 16.4172 7.62567 15.8537C7.62567 15.2916 7.13944 14.8354 6.53831 14.834H4.32596L8.42171 10.7397C8.81836 10.3416 8.81836 9.69538 8.42171 9.29736C8.02301 8.89798 7.37811 8.89798 6.97873 9.2973" fill="#FFE3DD"/>
<path d="M10.8429 8.422L14.9598 4.30506V6.52766C14.9598 7.11922 15.4201 7.59793 15.9801 7.59998C16.545 7.59998 16.9998 7.11922 16.9998 6.52766V1.96551C16.9998 1.94568 16.9957 1.92516 16.9937 1.90738C16.9957 1.89302 16.9978 1.87934 16.9998 1.86498C16.9978 1.3001 16.5129 0.845322 15.9111 0.845322H11.2874C10.6849 0.845322 10.1993 1.3001 10.1993 1.86498C10.1993 2.42645 10.6849 2.88396 11.2874 2.88533H13.4997L9.40398 6.9797C9.00596 7.37704 9.00596 8.02193 9.40398 8.41927C9.802 8.82002 10.4462 8.82002 10.8442 8.41933" fill="#FFE3DD"/>
</svg>
