<svg width="21" height="19" viewBox="0 0 21 19" fill="none" xmlns="http://www.w3.org/2000/svg">
<path d="M19.4568 8.49361C17.34 8.49361 15.352 7.71442 13.8584 6.29938C12.3654 4.88511 11.5433 3.00142 11.5433 0.995375C11.5433 0.445586 11.0761 0 10.5001 0C9.92394 0 9.45695 0.445586 9.45695 0.995375C9.45695 3.00142 8.63464 4.88511 7.14158 6.29938C5.64799 7.71442 3.65997 8.49361 1.54318 8.49361C0.966986 8.49361 0.5 8.93919 0.5 9.48898C0.5 10.0388 0.966986 10.4844 1.54318 10.4844C5.90661 10.4844 9.45695 13.858 9.45695 18.0046C9.45695 18.5544 9.92394 19 10.5001 19C11.0761 19 11.5433 18.5544 11.5433 18.0046C11.5433 13.858 15.0934 10.4844 19.4568 10.4844C20.033 10.4844 20.5 10.0388 20.5 9.48898C20.5 8.93919 20.033 8.49361 19.4568 8.49361Z" fill="#FFE3DD"/>
</svg>
